<?xml version="1.0" encoding="UTF-8"?>
<svg xmlns="http://www.w3.org/2000/svg" viewBox="0 0 512 512" fill="#fff">
  <path d="M512,256c0,141.38-114.62,256-256,256S0,397.38,0,256,114.62,0,256,0s256,114.62,256,256ZM256,16c-96.1,0-174,77.9-174,174s77.9,174,174,174,174-77.9,174-174S352.1,16,256,16Z"/>
  <path d="M128.19,139.44c7.56,0,13.92.68,19.07,2.05,5.15,1.37,9.31,3.27,12.48,5.71,3.17,2.44,5.45,5.36,6.84,8.75,1.39,3.4,2.08,7.12,2.08,11.18,0,3.83-.64,7.57-1.91,11.21-1.28,3.65-3.5,6.9-6.67,9.78-3.17,2.87-7.41,5.17-12.71,6.9-5.31,1.73-12,2.6-20.06,2.6h-9.43v35.68h14.36v5.47h-41.36v-5.47h13.67v-88.39h-13.67v-5.47h37.32ZM117.86,192.14h8.41c5.24,0,9.65-.4,13.23-1.2,3.58-.8,6.44-2.15,8.58-4.07,2.14-1.91,3.68-4.45,4.61-7.62.93-3.17,1.4-7.12,1.4-11.86,0-3.92-.35-7.29-1.06-10.12-.71-2.83-2.04-5.16-4-7.01-1.96-1.85-4.68-3.2-8.17-4.07-3.49-.87-7.99-1.3-13.5-1.3h-9.5v47.24Z"/>
  <path d="M199.76,233.3h9.23v5.47h-31.79v-5.47h10.25v-88.39h-10.25v-5.47h22.56v50.24h.27c1.91-3.51,4.43-6.22,7.55-8.13,3.12-1.91,7.14-2.87,12.07-2.87,6.33,0,11.02,1.61,14.05,4.82,3.03,3.21,4.55,7.8,4.55,13.77v36.03h9.91v5.47h-31.45v-5.47h9.23v-37.6c0-3.83-.84-6.6-2.53-8.31-1.69-1.71-4.1-2.56-7.25-2.56-2.28,0-4.41.46-6.39,1.37-1.98.91-3.71,2.32-5.2,4.24-1.48,1.91-2.66,4.38-3.52,7.38-.87,3.01-1.3,6.63-1.3,10.87v24.61Z"/>
  <path d="M311.05,220.24c-1.46,6.61-4.29,11.67-8.48,15.18-4.19,3.51-9.64,5.26-16.34,5.26-4.6,0-8.71-.81-12.3-2.43-3.6-1.62-6.65-3.82-9.16-6.6-2.51-2.78-4.42-6.03-5.74-9.74-1.32-3.71-1.98-7.67-1.98-11.86s.68-8.34,2.05-12.17,3.31-7.15,5.84-9.98c2.53-2.83,5.56-5.07,9.09-6.73,3.53-1.66,7.49-2.5,11.86-2.5,4.01,0,7.61.71,10.8,2.12,3.19,1.41,5.9,3.38,8.13,5.91,2.23,2.53,3.95,5.55,5.16,9.06,1.21,3.51,1.86,7.36,1.95,11.55h-41.22c-.05.78-.07,1.29-.07,1.54v.44c0,5.38.4,9.75,1.2,13.12.8,3.37,1.91,6,3.35,7.9,1.44,1.89,3.14,3.18,5.13,3.86s4.18,1.03,6.6,1.03c2.23,0,4.34-.3,6.32-.89,1.98-.59,3.77-1.54,5.37-2.84,1.59-1.3,3-2.98,4.2-5.06,1.21-2.07,2.18-4.57,2.91-7.49.91.09,1.82.25,2.73.48.91.23,1.78.5,2.6.82ZM298.13,201.99c-.14-3.78-.54-6.85-1.2-9.19-.66-2.35-1.54-4.18-2.63-5.5-1.09-1.32-2.38-2.22-3.86-2.7s-3.11-.72-4.89-.72c-1.87,0-3.61.27-5.23.82s-3.06,1.5-4.34,2.87c-1.28,1.37-2.34,3.21-3.18,5.54s-1.42,5.29-1.74,8.89h27.07Z"/>
  <path d="M389.05,239.72l-16.82-41.43-16.95,41.43h-5.74l-22.29-53.73h-10.19v-5.47h33.36v5.47h-9.78l15.31,37.94h.27l17.5-43.75h4.17l17.57,43.75h.27l15.04-37.94h-9.57v-5.47h25.5v5.47h-9.98l-21.88,53.73h-5.81Z"/>
</svg>